# xmcd
# 
# Track frame offsets:
#     150
#     13899
#     23658
#     35852
#     43865
#     56065
#     69404
#     76158
#     87524
#     96382
#     105177
#     115402
#     125715
#     137743
#     147139
#     155106
#     165838
#     175443
#     187068
#     198265
# 
# Disc length: 2832
# 
# Revision: 1
# Processed by: cddbd v1.5.2PL0 Copyright (c) Steve Scherf et al.
# Submitted via: fre:ac v1.0.17
# 
DISCID=1d0b0e14
DTITLE=Willie Nelson - Songbook
DYEAR=2003
DGENRE=Country
TTITLE0=Home Is Where You're Happy
TTITLE1=I Didn't Sleep A Wink
TTITLE2=The Shelter of Your Arms
TTITLE3=Things To Remember
TTITLE4=I Can't Find The Time
TTITLE5=Everything But You
TTITLE6=Both Ends of The Candle
TTITLE7=Is There Something on Your Mind
TTITLE8=Why Are You Picking on Me
TTITLE9=The Ghost
TTITLE10=Broken Promises
TTITLE11=Blame It on The Times
TTITLE12=Happiness Lives Next Door
TTITLE13=Building Heartaches
TTITLE14=Half a Man
TTITLE15=Touch Me
TTITLE16=Let's Pretend
TTITLE17=The Last Letter
TTITLE18=I'm Gonna Lose A Lot of Teardrops
TTITLE19=Rainy Day Blues
EXTD=YEAR: 2000
EXTT0=
EXTT1=
EXTT2=
EXTT3=
EXTT4=
EXTT5=
EXTT6=
EXTT7=
EXTT8=
EXTT9=
EXTT10=
EXTT11=
EXTT12=
EXTT13=
EXTT14=
EXTT15=
EXTT16=
EXTT17=
EXTT18=
EXTT19=
PLAYORDER=
